<?xml version="1.0" encoding="UTF-8" standalone="no"?>
<!-- Created with Inkscape (http://www.inkscape.org/) -->

<svg
   xmlns:dc="http://purl.org/dc/elements/1.1/"
   xmlns:cc="http://creativecommons.org/ns#"
   xmlns:rdf="http://www.w3.org/1999/02/22-rdf-syntax-ns#"
   xmlns:svg="http://www.w3.org/2000/svg"
   xmlns="http://www.w3.org/2000/svg"
   xmlns:sodipodi="http://sodipodi.sourceforge.net/DTD/sodipodi-0.dtd"
   xmlns:inkscape="http://www.inkscape.org/namespaces/inkscape"
   width="196.36906mm"
   height="71.688728mm"
   viewBox="0 0 196.36906 71.688728"
   version="1.1"
   id="svg8"
   inkscape:version="0.92.2 5c3e80d, 2017-08-06"
   sodipodi:docname="logo01.svg">
  <defs
     id="defs2">
    <clipPath
       id="d">
      <circle
         id="circle3839"
         r="400"
         cy="400"
         cx="400"
         style="fill:none" />
    </clipPath>
    <linearGradient
       gradientUnits="userSpaceOnUse"
       y2="645.42999"
       y1="365.39001"
       x2="159.85001"
       x1="439.89001"
       id="c"
       gradientTransform="matrix(0.26458333,0,0,0.26458333,40.383466,238.10714)">
      <stop
         id="stop3842"
         offset="0" />
      <stop
         id="stop3844"
         offset="1"
         stop-opacity="0" />
    </linearGradient>
  </defs>
  <sodipodi:namedview
     id="base"
     pagecolor="#ffffff"
     bordercolor="#666666"
     borderopacity="1.0"
     inkscape:pageopacity="0.0"
     inkscape:pageshadow="2"
     inkscape:zoom="1.8364761"
     inkscape:cx="377.9523"
     inkscape:cy="130.02955"
     inkscape:document-units="mm"
     inkscape:current-layer="layer1"
     showgrid="false"
     inkscape:window-width="1920"
     inkscape:window-height="1063"
     inkscape:window-x="0"
     inkscape:window-y="17"
     inkscape:window-maximized="0"
     inkscape:pagecheckerboard="true"
     fit-margin-top="0"
     fit-margin-left="0"
     fit-margin-right="0"
     fit-margin-bottom="0">
    <inkscape:grid
       type="xygrid"
       id="grid5862"
       originx="-28.145658"
       originy="-101.35759" />
  </sodipodi:namedview>
  <metadata
     id="metadata5">
    <rdf:RDF>
      <cc:Work
         rdf:about="">
        <dc:format>image/svg+xml</dc:format>
        <dc:type
           rdf:resource="http://purl.org/dc/dcmitype/StillImage" />
        <dc:title></dc:title>
      </cc:Work>
    </rdf:RDF>
  </metadata>
  <g
     inkscape:label="Layer 1"
     inkscape:groupmode="layer"
     id="layer1"
     transform="translate(-28.145659,-123.95368)">
    <path
       inkscape:connector-curvature="0"
       id="path5843"
       style="font-style:normal;font-variant:normal;font-weight:normal;font-stretch:normal;font-size:94.86724854px;line-height:1.25;font-family:'Ubuntu Mono derivative Powerline';-inkscape-font-specification:'Ubuntu Mono derivative Powerline';letter-spacing:0px;word-spacing:0px;fill:#ff7800;fill-opacity:1;stroke:none;stroke-width:0.98820055"
       d="m 28.145659,160.30873 c 0,-3.98442 0.632448,-7.43126 1.897345,-10.34053 1.264896,-2.90926 3.004129,-5.31256 5.217699,-7.20991 2.213569,-1.89734 4.774985,-3.28873 7.684247,-4.17416 2.972507,-0.94867 6.134749,-1.423 9.486725,-1.423 2.150324,0 4.269026,0.15811 6.356106,0.47433 2.150324,0.25298 8.211673,1.93798 10.614977,2.69692 0,0 -1.722053,1.82894 -2.459598,2.84154 -0.72654,0.99749 -1.920984,3.16472 -1.920984,3.16472 -2.08708,-0.75893 -5.222478,-1.683 -6.993333,-1.87274 -1.707611,-0.25298 -3.446844,-0.37947 -5.217699,-0.37947 -2.276814,0 -4.427139,0.31623 -6.450973,0.94868 -2.023835,0.5692 -3.79469,1.51787 -5.312566,2.84601 -1.454631,1.2649 -2.62466,2.94089 -3.510088,5.02797 -0.885428,2.02383 -1.328141,4.49038 -1.328141,7.39964 0,2.78277 0.411091,5.18608 1.233274,7.20991 0.822182,1.96059 1.960589,3.60496 3.415221,4.9331 1.517876,1.2649 3.320353,2.21357 5.407433,2.84602 2.087079,0.63245 4.395515,0.94867 6.925309,0.94867 2.023834,0 3.952802,-0.0949 5.786902,-0.2846 1.897345,-0.25298 3.629633,-0.65122 5.843202,-1.41016 0,0 1.123703,1.90956 1.809805,2.77485 0.67156,0.84695 2.240697,2.34395 2.240697,2.34395 -1.106784,0.4111 -2.776991,1.32902 -4.234572,1.81093 -1.656213,0.54759 -3.951521,1.05789 -5.089928,1.216 -2.276814,0.37947 -4.743363,0.56921 -7.399646,0.56921 -3.541711,0 -6.79882,-0.47434 -9.771326,-1.42301 -2.909263,-1.01192 -5.439056,-2.46655 -7.58938,-4.36389 -2.08708,-1.89735 -3.731445,-4.26903 -4.933097,-7.11505 -1.138408,-2.90926 -1.707611,-6.26124 -1.707611,-10.05593 z"
       sodipodi:nodetypes="ssccsccaccscccsccssccacacscccs" />
    <path
       inkscape:connector-curvature="0"
       id="path5845"
       style="font-style:normal;font-variant:normal;font-weight:normal;font-stretch:normal;font-size:94.86724854px;line-height:1.25;font-family:'Ubuntu Mono derivative Powerline';-inkscape-font-specification:'Ubuntu Mono derivative Powerline';letter-spacing:0px;word-spacing:0px;fill:#ff7800;fill-opacity:1;stroke:none;stroke-width:0.98820055"
       d="m 104.02068,160.21387 c 0,3.47847 -0.50596,6.64071 -1.51788,9.48672 -0.94868,2.78277 -2.30845,5.18608 -4.079306,7.20991 -1.770856,2.02383 -3.889557,3.60495 -6.356105,4.74336 -2.466549,1.07517 -5.154454,1.61275 -8.063716,1.61275 -2.846018,0 -5.502301,-0.53758 -7.968849,-1.61275 -2.403304,-1.13841 -4.490384,-2.71953 -6.261239,-4.74336 -1.770856,-2.02383 -3.162242,-4.42714 -4.174159,-7.20991 -0.948672,-2.84601 -1.423008,-6.00825 -1.423008,-9.48672 0,-3.47847 0.474336,-6.64071 1.423008,-9.48673 1.011917,-2.84601 2.403303,-5.24932 4.174159,-7.20991 1.770855,-2.02383 3.857935,-3.57333 6.261239,-4.64849 2.466548,-1.13841 5.122831,-1.70761 7.968849,-1.70761 2.909262,0 5.597167,0.5692 8.063716,1.70761 2.466548,1.07516 4.585249,2.62466 6.356105,4.64849 1.770856,1.96059 3.130626,4.3639 4.079306,7.20991 1.01192,2.84602 1.51788,6.00826 1.51788,9.48673 z m -8.063734,0 c 0,-4.99635 -1.075163,-8.91753 -3.225487,-11.76354 -2.150324,-2.90927 -5.059586,-4.3639 -8.727786,-4.3639 -3.604956,0 -6.482596,1.45463 -8.63292,4.3639 -2.08708,2.84601 -3.130619,6.76719 -3.130619,11.76354 0,4.93309 1.043539,8.85427 3.130619,11.76354 2.150324,2.84601 5.027964,4.26902 8.63292,4.26902 3.6682,0 6.577462,-1.42301 8.727786,-4.26902 2.150324,-2.90927 3.225487,-6.83045 3.225487,-11.76354 z"
       sodipodi:nodetypes="scscscscscccscccsscscscscs" />
    <path
       inkscape:connector-curvature="0"
       id="path5847"
       style="font-style:normal;font-variant:normal;font-weight:normal;font-stretch:normal;font-size:94.86724854px;line-height:1.25;font-family:'Ubuntu Mono derivative Powerline';-inkscape-font-specification:'Ubuntu Mono derivative Powerline';letter-spacing:0px;word-spacing:0px;fill:#ff7800;fill-opacity:1;stroke:none;stroke-width:0.98820055"
       d="m 131.0474,178.14378 c -0.88543,0.50595 -2.24519,1.04353 -4.07929,1.61274 -1.8341,0.56921 -4.26632,0.64105 -6.35611,0.28561 -2.06617,-0.35142 -4.19194,-1.31317 -5.99777,-2.37691 -1.5536,-0.91516 -2.80574,-2.30957 -3.92127,-3.72618 -1.46428,-1.85949 -2.74884,-3.92268 -3.54776,-6.15058 -0.97229,-2.71135 -1.39995,-5.64295 -1.42301,-8.52327 -0.0238,-2.97392 0.4114,-5.99345 1.32815,-8.82265 0.75539,-2.33122 1.89094,-4.58164 3.37717,-6.53005 1.50429,-1.97209 2.94093,-3.96859 5.47072,-5.04375 2.52979,-1.13841 3.29076,-1.70761 6.51625,-1.70761 3.79469,0 7.02018,0.2846 9.67646,0.8538 2.71953,0.50596 4.99634,1.01192 6.83044,1.51788 v 39.27504 c 0,6.83044 -1.73923,11.76354 -5.21769,14.79929 -3.41523,3.03575 -15.88498,1.77625 -15.88498,1.77625 l 0.84323,-6.83045 c 0,0 7.48399,1.86033 9.44458,0.0262 1.96059,-1.8341 2.94088,-4.80661 2.94088,-8.91752 z m 0,-33.01381 c -0.75893,-0.25297 -1.80247,-0.47433 -3.13062,-0.66407 -1.32814,-0.25298 -3.66318,-0.85117 -5.40743,-0.37947 -2.47803,0.67014 -4.82045,2.03891 -6.36344,4.33754 -2.08189,3.10145 -2.39028,7.2008 -2.36,10.93609 0.015,1.85112 0.25426,3.73611 0.85381,5.48751 0.5501,1.60696 2.46654,4.45876 2.46654,4.45876 v 0 c 0,0 2.50372,2.70309 4.16982,3.32036 1.72105,0.63763 3.79469,0.77373 5.5023,0.20452 1.77085,-0.5692 3.19386,-1.23327 4.26902,-1.99221 z"
       sodipodi:nodetypes="csssssssacsccsccccscccassssssccc" />
    <path
       inkscape:connector-curvature="0"
       id="path5849"
       style="font-style:normal;font-variant:normal;font-weight:normal;font-stretch:normal;font-size:94.86724854px;line-height:1.25;font-family:'Ubuntu Mono derivative Powerline';-inkscape-font-specification:'Ubuntu Mono derivative Powerline';letter-spacing:0px;word-spacing:0px;fill:#ff7800;fill-opacity:1;stroke:none;stroke-width:0.98820055"
       d="m 141.06898,139.43794 c 2.84601,-0.69569 5.66041,-1.23327 8.44318,-1.61274 2.84602,-0.37947 5.5023,-0.56921 7.96885,-0.56921 5.88177,0 10.3089,1.51788 13.28141,4.55363 3.03575,3.03575 4.55363,7.90561 4.55363,14.60956 v 25.80389 h -7.77911 v -24.38088 c 0,-2.84602 -0.25298,-5.15446 -0.75894,-6.92531 -0.50596,-1.77086 -1.23328,-3.13063 -2.18195,-4.0793 -0.88543,-1.01191 -1.99221,-1.7076 -3.32035,-2.08707 -1.2649,-0.37947 -2.65629,-0.56921 -4.17416,-0.56921 -1.26489,0 -2.62466,0.0949 -4.07929,0.2846 -1.39139,0.12649 -2.75115,0.31623 -4.07929,0.56921 v 37.18796 h -7.87398 z"
       sodipodi:nodetypes="ccscsccssccsccccc" />
    <path
       inkscape:connector-curvature="0"
       id="path5853"
       style="font-style:normal;font-variant:normal;font-weight:normal;font-stretch:normal;font-size:94.86724854px;line-height:1.25;font-family:'Ubuntu Mono derivative Powerline';-inkscape-font-specification:'Ubuntu Mono derivative Powerline';letter-spacing:0px;word-spacing:0px;fill:#ff7800;fill-opacity:1;stroke:none;stroke-width:0.98820055"
       d="m 218.44322,136.66589 c -1.64437,0 -3.06738,-0.5692 -4.26903,-1.70761 -1.20165,-1.13841 -1.80247,-2.6879 -1.80247,-4.64849 0,-1.96059 0.60082,-3.51009 1.80247,-4.6485 1.20165,-1.13841 2.62466,-1.70761 4.26903,-1.70761 1.70761,0 3.13062,0.5692 4.26903,1.70761 1.20165,1.13841 1.80247,2.68791 1.80247,4.6485 0,1.96059 -0.60082,3.51008 -1.80247,4.64849 -1.13841,1.13841 -2.56142,1.70761 -4.26903,1.70761 z m -4.35714,44.37028 0.24822,-36.28566 v 0 l 0.19084,-6.67618 7.58827,0.13033 0.13655,41.05576"
       sodipodi:nodetypes="scscscscscccccc" />
    <path
       inkscape:connector-curvature="0"
       id="path5851"
       style="font-style:normal;font-variant:normal;font-weight:normal;font-stretch:normal;font-size:94.86724854px;line-height:1.25;font-family:'Ubuntu Mono derivative Powerline';-inkscape-font-specification:'Ubuntu Mono derivative Powerline';letter-spacing:0px;word-spacing:0px;fill:#ff7800;fill-opacity:1;stroke:none;stroke-width:0.98820055"
       d="m 195.32768,176.6259 c 1.96059,0 3.69982,-0.0632 5.2177,-0.18973 1.58112,-0.12649 2.87764,-0.28461 3.88956,-0.47434 v -13.09168 c -1.01192,-0.31623 -2.24519,-0.56921 -3.69983,-0.75894 -1.39138,-0.18973 -2.87764,-0.2846 -4.45876,-0.2846 -1.45462,0 -2.87763,0.12649 -4.26902,0.37947 -1.39138,0.18973 -2.62466,0.5692 -3.69983,1.13841 -1.07516,0.5692 -1.96058,1.32814 -2.65628,2.27681 -0.69569,0.88543 -1.04354,2.02383 -1.04354,3.41522 0,2.84602 0.94868,4.83823 2.84602,5.97664 1.96059,1.07516 4.58525,1.61274 7.87398,1.61274 z m -0.75894,-38.9356 c 2.78142,0.0393 6.03989,0.41109 8.25345,1.23327 2.27682,0.82218 4.11092,1.96059 5.5023,3.41522 1.39139,1.45463 2.37169,2.69632 2.94089,4.7834 0.5692,2.08708 0.8538,4.36389 0.8538,6.83044 v 27.5115 c -1.8341,0.31623 -4.26902,0.6957 -7.30478,1.13841 -2.9725,0.44271 -6.03988,0.66407 -9.20212,0.66407 -2.4033,0 -4.74336,-0.22136 -7.02018,-0.66407 -2.27681,-0.37947 -4.30064,-1.07517 -6.0715,-2.08708 -1.77085,-1.07517 -3.19386,-2.5298 -4.26903,-4.3639 -1.07516,-1.8341 -1.61274,-4.17416 -1.61274,-7.02017 0,-2.52979 0.53758,-4.6485 1.61274,-6.35611 1.13842,-1.77085 2.56143,-3.19386 4.26903,-4.26902 1.77086,-1.07517 3.76307,-1.83411 5.97664,-2.27682 2.27682,-0.50596 4.55363,-0.75894 6.83044,-0.75894 3.099,0 6.13475,0.34785 9.10726,1.04354 v -2.18194 c 0,-1.32815 -0.15811,-2.06387 -0.47434,-3.26552 -0.25298,-1.2649 -0.79056,-2.40331 -1.61274,-3.41522 -0.75894,-1.01192 -1.99994,-1.84348 -3.22549,-2.37168 -1.62339,-0.69968 -3.45304,-0.84429 -5.2177,-0.94868 -2.86225,-0.16933 -5.77947,-0.0596 -8.58542,0.53017 -3.15341,0.66278 -7.99686,2.95937 -9.07203,3.33884 0,0 -0.6299,-2.19333 -1.11543,-3.22037 -0.53382,-1.12918 -1.95782,-3.19483 -1.95782,-3.19483 0,0 6.76143,-2.07652 10.22693,-2.74748 3.68123,-0.71273 7.41862,-1.40007 11.16784,-1.34703 z"
       sodipodi:nodetypes="sccccscccscsacscsccscccscccscsccaaacacaa" />
  </g>
</svg>
