<?xml version="1.0" encoding="UTF-8" standalone="no"?>
<!-- Created with Inkscape (http://www.inkscape.org/) -->

<svg
   xmlns:dc="http://purl.org/dc/elements/1.1/"
   xmlns:cc="http://creativecommons.org/ns#"
   xmlns:rdf="http://www.w3.org/1999/02/22-rdf-syntax-ns#"
   xmlns:svg="http://www.w3.org/2000/svg"
   xmlns="http://www.w3.org/2000/svg"
   xmlns:sodipodi="http://sodipodi.sourceforge.net/DTD/sodipodi-0.dtd"
   xmlns:inkscape="http://www.inkscape.org/namespaces/inkscape"
   width="32.247944mm"
   height="33.556114mm"
   viewBox="0 0 32.247944 33.556114"
   version="1.1"
   id="svg4746"
   sodipodi:docname="brain.svg"
   inkscape:version="0.92.2 5c3e80d, 2017-08-06">
  <defs
     id="defs4740" />
  <sodipodi:namedview
     id="base"
     pagecolor="#ffffff"
     bordercolor="#666666"
     borderopacity="1.0"
     inkscape:pageopacity="1"
     inkscape:pageshadow="2"
     inkscape:zoom="6.7493909"
     inkscape:cx="60.792834"
     inkscape:cy="63.413118"
     inkscape:document-units="mm"
     inkscape:current-layer="layer1"
     showgrid="false"
     inkscape:window-width="1920"
     inkscape:window-height="1063"
     inkscape:window-x="0"
     inkscape:window-y="17"
     inkscape:window-maximized="0"
     fit-margin-top="0"
     fit-margin-left="0"
     fit-margin-right="0"
     fit-margin-bottom="0"
     inkscape:pagecheckerboard="true" />
  <metadata
     id="metadata4743">
    <rdf:RDF>
      <cc:Work
         rdf:about="">
        <dc:format>image/svg+xml</dc:format>
        <dc:type
           rdf:resource="http://purl.org/dc/dcmitype/StillImage" />
        <dc:title></dc:title>
      </cc:Work>
    </rdf:RDF>
  </metadata>
  <g
     inkscape:label="Layer 1"
     inkscape:groupmode="layer"
     id="layer1"
     transform="translate(-89.709362,-132.05528)">
    <rect
       style="fill:#ffffff;fill-opacity:1;stroke-width:0.26458332"
       id="rect5809"
       width="33.360107"
       height="34.065731"
       x="89.042946"
       y="131.97688" />
    <g
       id="g3915"
       transform="matrix(0.36707607,0,0,0.36707607,52.008563,22.483086)"
       style="fill:#ffb3ca;fill-opacity:1"
       inkscape:export-xdpi="96"
       inkscape:export-ydpi="96">
      <path
         id="path3853"
         d="m 185.09996,340.26541 c 3.48642,-4.80166 4.24471,-10.8204 1.9893,-16.44333 -2.52878,-6.30449 -8.44047,-10.70451 -15.63185,-11.73638 -0.91003,-2.98 -3.21601,-5.58324 -6.63284,-7.44194 -5.33902,-2.90459 -12.24862,-3.40148 -17.52917,-1.32757 a 18.842037,18.842037 0 0 0 -15.72101,-0.18682 c -4.19312,1.82067 -7.61604,5.04057 -9.09479,8.45687 -6.33571,0.72602 -12.09199,4.90644 -14.91747,10.94555 -2.77231,5.92614 -2.19949,12.58755 1.48867,18.08268 -5.1136,8.26374 -4.64661,16.26553 1.39359,23.80801 1.54617,9.61575 6.65427,15.0831 15.19449,16.26499 6.81249,6.22988 13.98588,8.40423 21.34341,6.4725 a 13.358283,13.358283 0 0 0 6.02006,1.31078 20.087431,20.087431 0 0 0 7.52105,-1.54517 c 3.92218,-1.60171 6.87044,-4.16137 8.20473,-7.04585 a 13.677106,13.677106 0 0 0 9.44906,-3.43139 c 3.04113,-2.66779 4.99269,-6.63548 5.20859,-10.5111 3.16336,-3.80391 5.20885,-8.52487 5.64198,-13.06168 0.46246,-4.84452 -0.9243,-9.25328 -3.92748,-12.61004 z m -57.21614,37.08929 -0.48382,-0.45707 -0.66146,-0.0731 c -7.26572,-0.80169 -11.22018,-5.08582 -12.44335,-13.47999 -0.16888,-1.54038 0.84201,-5.05751 3.19167,-7.69382 1.85208,-2.0779 4.0468,-3.13161 6.52356,-3.13161 a 1.984375,1.984375 0 0 0 0,-3.96875 c -3.60547,0 -6.88578,1.54202 -9.48637,4.45982 a 17.566746,17.566746 0 0 0 -3.2758,5.43772 c -2.77204,-5.37104 -2.15562,-10.89581 1.84764,-16.77591 l 0.81261,-1.19372 -0.88585,-1.14035 c -3.54648,-4.56512 -4.22645,-10.07772 -1.86531,-15.12438 2.40191,-5.13398 7.43638,-8.57382 12.82567,-8.76327 l 1.45728,-0.0512 0.38629,-1.40612 c 0.75435,-2.74479 3.6994,-5.6478 7.32843,-7.22339 a 15.015898,15.015898 0 0 1 12.09542,-0.0229 v 76.74504 c -5.93725,1.29635 -11.63346,-0.71972 -17.36672,-6.13781 z m 52.25256,-13.72658 c -2.02605,1.13461 -3.84598,1.51775 -6.78206,1.45179 -0.0155,-2.6e-4 -0.031,-5.3e-4 -0.0463,-5.3e-4 a 1.984375,1.984375 0 0 0 -0.0447,3.96822 c 0.25297,0.006 0.50271,0.009 0.75112,0.009 a 17.103989,17.103989 0 0 0 4.86119,-0.61359 11.822906,11.822906 0 0 1 -3.31602,5.02126 9.7094145,9.7094145 0 0 1 -7.92348,2.35257 l -1.77895,-0.24133 -0.41754,1.74625 c -0.54104,2.26187 -2.99984,4.5339 -6.4172,5.92932 -3.5478,1.44914 -7.25514,1.64081 -9.80387,0.56999 v -76.97788 c 4.13094,-1.43404 9.57818,-0.95993 13.70912,1.28667 2.86014,1.55599 4.61433,3.70258 4.93871,6.04414 l 0.2191,1.58221 1.59279,0.12377 c 6.42991,0.49933 11.5615,4.02061 13.72712,9.41944 a 13.0175,13.0175 0 0 1 -2.41589,13.7488 q -0.40653,0.39788 -0.77951,0.76994 c -2.71383,2.69558 -4.07591,4.04839 -10.56402,4.82918 a 1.9845337,1.9845337 0 0 0 0.2346,3.95472 2.0372916,2.0372916 0 0 0 0.2398,-0.0145 c 7.03342,-0.84667 9.2964,-2.44925 12.28857,-5.36496 4.92813,5.86105 2.71436,14.58437 -2.27267,20.40546 z"
         inkscape:connector-curvature="0"
         style="fill:#ffb3ca;fill-opacity:1;stroke-width:0.26458332" />
      <path
         id="path3855"
         d="m 132.40819,352.06318 a 1.984375,1.984375 0 1 0 1.84021,3.51605 8.0610603,8.0610603 0 0 0 4.29075,-8.55213 c -0.51819,-2.90327 -2.89878,-6.24284 -8.0272,-6.90801 a 1.984375,1.984375 0 0 0 -0.51064,3.93568 c 2.54854,0.33073 4.27963,1.70249 4.63073,3.66977 0.31494,1.76374 -0.55803,3.4671 -2.22369,4.33864 z"
         inkscape:connector-curvature="0"
         style="fill:#ffb3ca;fill-opacity:1;stroke-width:0.26458332" />
      <path
         id="path3857"
         d="m 156.46411,323.38499 c 3.05567,-2.71383 5.83248,-0.7851 7.21572,0.60643 2.65932,2.67573 4.06479,7.39008 1.82935,9.87663 a 1.984375,1.984375 0 1 0 2.95117,2.65324 c 3.89254,-4.32964 2.01022,-11.32734 -1.96586,-15.32784 -3.8563,-3.87959 -8.82729,-4.18465 -12.66613,-0.77618 a 1.9844552,1.9844552 0 0 0 2.63549,2.96756 z"
         inkscape:connector-curvature="0"
         style="fill:#ffb3ca;fill-opacity:1;stroke-width:0.26458332" />
      <path
         id="path3859"
         d="m 166.20342,351.33558 c -3.01863,0.54207 -5.68827,-1.397 -6.66591,-3.49912 -0.48448,-1.04127 -0.98264,-3.04906 1.12292,-4.7961 a 1.9843938,1.9843938 0 1 0 -2.53421,-3.05435 c -2.94507,2.44353 -3.78327,6.09282 -2.18747,9.52421 1.44746,3.11202 4.95142,5.89041 9.20274,5.89015 a 9.9520374,9.9520374 0 0 0 1.76527,-0.15917 1.984375,1.984375 0 1 0 -0.70331,-3.90578 z"
         inkscape:connector-curvature="0"
         style="fill:#ffb3ca;fill-opacity:1;stroke-width:0.26458332" />
      <path
         id="path3861"
         d="m 127.64305,336.07706 a 1.9845866,1.9845866 0 0 0 -0.36833,-2.7821 c -1.48854,-1.14035 -2.12016,-2.60009 -1.8774,-4.33864 0.34713,-2.48549 2.45864,-5.0239 5.02047,-6.03567 a 5.7398708,5.7398708 0 0 1 5.99334,0.91726 1.9843785,1.9843785 0 1 0 2.49441,-3.0869 9.7496311,9.7496311 0 0 0 -9.94569,-1.52162 c -3.87032,1.52885 -6.95166,5.30278 -7.493,9.17787 -0.44249,3.16733 0.76288,6.02218 3.39408,8.03804 a 1.9842427,1.9842427 0 0 0 2.78209,-0.36832 z"
         inkscape:connector-curvature="0"
         style="fill:#ffb3ca;fill-opacity:1;stroke-width:0.26458332" />
      <path
         id="path3863"
         d="m 167.11888,361.26539 c -3.65019,-1.37486 -7.69382,-0.4408 -10.06343,2.32259 -2.13293,2.48822 -2.36524,5.81951 -0.62116,8.91117 a 1.984375,1.984375 0 1 0 3.45652,-1.94974 c -0.91493,-1.62238 -0.85196,-3.17712 0.17777,-4.37833 1.03585,-1.20846 3.24591,-2.0978 5.65124,-1.19166 a 1.984375,1.984375 0 0 0 1.39888,-3.71395 z"
         inkscape:connector-curvature="0"
         style="fill:#ffb3ca;fill-opacity:1;stroke-width:0.26458332" />
      <path
         id="path3865"
         d="m 136.40605,361.34741 c -4.80404,-2.65748 -10.02083,-2.03864 -12.98125,1.53987 a 1.984375,1.984375 0 1 0 3.05805,2.52955 c 1.96964,-2.38072 5.43798,-2.01512 8.00232,-0.59661 2.86941,1.58698 5.2451,4.75933 4.08438,8.26929 a 1.984375,1.984375 0 1 0 3.76793,1.24592 c 1.8747,-5.66843 -1.62817,-10.60767 -5.93117,-12.98786 z"
         inkscape:connector-curvature="0"
         style="fill:#ffb3ca;fill-opacity:1;stroke-width:0.26458332" />
    </g>
  </g>
</svg>
