<?xml version="1.0" encoding="UTF-8" standalone="no"?>
<!-- Created with Inkscape (http://www.inkscape.org/) -->

<svg
   xmlns:dc="http://purl.org/dc/elements/1.1/"
   xmlns:cc="http://creativecommons.org/ns#"
   xmlns:rdf="http://www.w3.org/1999/02/22-rdf-syntax-ns#"
   xmlns:svg="http://www.w3.org/2000/svg"
   xmlns="http://www.w3.org/2000/svg"
   xmlns:sodipodi="http://sodipodi.sourceforge.net/DTD/sodipodi-0.dtd"
   xmlns:inkscape="http://www.inkscape.org/namespaces/inkscape"
   width="54.303513mm"
   height="37.923901mm"
   viewBox="0 0 54.303513 37.923901"
   version="1.1"
   id="svg3792"
   inkscape:version="0.92.2 5c3e80d, 2017-08-06"
   sodipodi:docname="logo02.svg">
  <defs
     id="defs3786" />
  <sodipodi:namedview
     id="base"
     pagecolor="#ffffff"
     bordercolor="#666666"
     borderopacity="1.0"
     inkscape:pageopacity="0.0"
     inkscape:pageshadow="2"
     inkscape:zoom="5.9720473"
     inkscape:cx="102.62081"
     inkscape:cy="71.667213"
     inkscape:document-units="mm"
     inkscape:current-layer="layer1"
     showgrid="false"
     fit-margin-top="0"
     fit-margin-left="0"
     fit-margin-right="0"
     fit-margin-bottom="0"
     inkscape:window-width="1920"
     inkscape:window-height="1063"
     inkscape:window-x="0"
     inkscape:window-y="17"
     inkscape:window-maximized="0" />
  <metadata
     id="metadata3789">
    <rdf:RDF>
      <cc:Work
         rdf:about="">
        <dc:format>image/svg+xml</dc:format>
        <dc:type
           rdf:resource="http://purl.org/dc/dcmitype/StillImage" />
        <dc:title></dc:title>
      </cc:Work>
    </rdf:RDF>
  </metadata>
  <g
     inkscape:label="Layer 1"
     inkscape:groupmode="layer"
     id="layer1"
     transform="translate(-63.562531,-24.03805)">
    <g
       transform="matrix(0.26458333,0,0,0.26458333,57.336525,19.382443)"
       id="g24">
      <path
         style="fill:#f4aec5"
         id="path3853_6_"
         inkscape:connector-curvature="0"
         d="m 164.833,57.929 c 3.627,-4.996 4.416,-11.258 2.069,-17.109 -2.631,-6.561 -8.782,-11.139 -16.266,-12.213 -0.946,-3.1 -3.346,-5.809 -6.901,-7.742 -5.556,-3.023 -12.745,-3.54 -18.239,-1.382 -5.164,-2.445 -11.138,-2.516 -16.358,-0.194 -4.363,1.895 -7.925,5.245 -9.464,8.799 -6.592,0.756 -12.582,5.105 -15.521,11.391 -2.885,6.166 -2.289,13.098 1.549,18.814 -5.321,8.6 -4.835,16.925 1.45,24.772 1.608,10.006 6.924,15.693 15.811,16.924 7.088,6.482 14.553,8.746 22.208,6.734 1.953,0.938 4.099,1.404 6.265,1.365 2.688,-0.027 5.345,-0.574 7.825,-1.607 4.081,-1.668 7.149,-4.33 8.537,-7.332 3.612,0.102 7.127,-1.176 9.832,-3.57 3.165,-2.777 5.195,-6.904 5.42,-10.938 3.292,-3.959 5.42,-8.871 5.871,-13.591 0.48,-5.041 -0.963,-9.627 -4.088,-13.121 z m -59.535,38.593 -0.504,-0.477 -0.688,-0.076 C 96.546,95.135 92.431,90.678 91.159,81.944 90.983,80.34 92.035,76.68 94.48,73.938 c 1.927,-2.162 4.211,-3.259 6.788,-3.259 1.14,0 2.064,-0.924 2.064,-2.064 0,-1.14 -0.925,-2.064 -2.064,-2.064 -3.752,0 -7.165,1.605 -9.871,4.64 -1.471,1.664 -2.626,3.58 -3.409,5.658 -2.884,-5.588 -2.242,-11.337 1.923,-17.454 l 0.846,-1.242 -0.922,-1.188 c -3.69,-4.75 -4.397,-10.486 -1.94,-15.736 2.499,-5.344 7.737,-8.922 13.345,-9.119 l 1.517,-0.053 0.402,-1.463 c 0.784,-2.857 3.849,-5.877 7.625,-7.518 4.007,-1.771 8.572,-1.779 12.586,-0.023 v 79.854 c -6.178,1.35 -12.105,-0.748 -18.07,-6.387 v 0.002 z m 54.37,-14.283 c -2.108,1.18 -4.002,1.578 -7.057,1.51 -0.017,0 -0.032,0 -0.049,0 -1.14,0 -2.064,0.926 -2.063,2.064 0,1.123 0.896,2.039 2.018,2.064 0.263,0.006 0.522,0.01 0.781,0.01 1.708,0.031 3.411,-0.184 5.059,-0.639 -0.681,2.01 -1.869,3.811 -3.451,5.225 -2.246,2.004 -5.269,2.9 -8.244,2.447 l -1.852,-0.25 -0.434,1.816 c -0.563,2.354 -3.122,4.719 -6.678,6.17 -3.691,1.508 -7.549,1.707 -10.201,0.594 V 23.152 c 4.298,-1.49 9.967,-0.998 14.265,1.34 2.977,1.619 4.802,3.854 5.139,6.289 l 0.229,1.646 1.657,0.129 c 6.69,0.52 12.03,4.184 14.283,9.801 2.006,4.854 1.026,10.428 -2.514,14.307 -0.282,0.275 -0.553,0.543 -0.812,0.801 -2.823,2.805 -4.241,4.213 -10.992,5.025 -1.132,0.137 -1.938,1.166 -1.802,2.297 0.125,1.035 1.003,1.816 2.046,1.818 0.084,0 0.167,-0.006 0.25,-0.016 7.318,-0.881 9.673,-2.549 12.786,-5.582 5.129,6.098 2.826,15.175 -2.364,21.232 z" />
      <path
         style="fill:#f4aec5"
         id="path3853_3_"
         inkscape:connector-curvature="0"
         d="m 125.17,105.151 c 1.896,0.91 3.978,1.363 6.079,1.324 2.607,-0.025 5.186,-0.557 7.593,-1.559 3.96,-1.619 6.938,-4.202 8.284,-7.115 3.505,0.099 6.915,-1.141 9.54,-3.465 3.071,-2.694 5.041,-6.699 5.26,-10.613 3.194,-3.841 5.259,-8.607 5.696,-13.188 0.467,-4.892 -0.933,-9.342 -3.966,-12.732 v 0 c 3.52,-4.848 4.285,-10.924 2.009,-16.602 -2.554,-6.365 -8.522,-10.809 -15.783,-11.851 -0.919,-3.008 -3.247,-5.636 -6.697,-7.513 -5.391,-2.933 -12.367,-3.435 -17.698,-1.341 z" />
      <path
         style="fill:#f4aec5"
         id="path3853_5_"
         inkscape:connector-curvature="0"
         d="m 105.298,96.522 -0.504,-0.477 -0.688,-0.076 C 96.546,95.135 92.431,90.678 91.159,81.944 90.983,80.34 92.035,76.68 94.48,73.938 c 1.927,-2.162 4.211,-3.259 6.788,-3.259 1.14,0 2.064,-0.924 2.064,-2.064 0,-1.14 -0.925,-2.064 -2.064,-2.064 -3.752,0 -7.165,1.605 -9.871,4.64 -1.471,1.664 -2.626,3.58 -3.409,5.658 -2.884,-5.588 -2.242,-11.337 1.923,-17.454 l 0.846,-1.242 -0.922,-1.188 c -3.69,-4.75 -4.397,-10.486 -1.94,-15.736 2.499,-5.344 7.737,-8.922 13.345,-9.119 l 1.517,-0.053 0.402,-1.463 c 0.784,-2.857 3.849,-5.877 7.625,-7.518 4.007,-1.771 8.572,-1.779 12.586,-0.023 v 79.854 c -6.178,1.35 -12.105,-0.748 -18.07,-6.387 v 0.002 z m 22.2,10.201 V 19.482 h -2.001 c -5.164,-2.445 -11.138,-2.516 -16.358,-0.194 -4.363,1.895 -7.925,5.245 -9.464,8.799 -6.592,0.756 -12.582,5.105 -15.521,11.391 -2.885,6.166 -2.289,13.098 1.549,18.814 -5.321,8.6 -4.835,16.925 1.45,24.772 1.608,10.006 6.924,15.693 15.811,16.924 7.088,6.482 14.553,8.746 22.208,6.734 h 2.326 z" />
      <path
         style="fill:#f4aec5"
         id="path3855_4_"
         inkscape:connector-curvature="0"
         d="m 111.975,69.549 c -1.016,0.516 -1.42,1.76 -0.902,2.775 0.517,1.018 1.761,1.422 2.776,0.904 0.014,-0.008 0.027,-0.016 0.041,-0.021 3.278,-1.668 5.088,-5.275 4.465,-8.898 -0.539,-3.021 -3.017,-6.496 -8.353,-7.189 -1.132,-0.139 -2.162,0.666 -2.301,1.799 -0.138,1.121 0.65,2.145 1.77,2.297 2.651,0.344 4.453,1.771 4.818,3.818 0.328,1.836 -0.581,3.607 -2.314,4.515 z" />
      <path
         style="fill:#f4aec5"
         id="path3861_4_"
         inkscape:connector-curvature="0"
         d="m 104.017,52.915 c 0.693,-0.906 0.522,-2.201 -0.383,-2.895 -1.549,-1.188 -2.206,-2.705 -1.954,-4.516 0.361,-2.586 2.559,-5.227 5.225,-6.279 2.091,-0.896 4.509,-0.525 6.236,0.953 0.887,0.717 2.187,0.58 2.903,-0.307 0.717,-0.889 0.579,-2.188 -0.309,-2.904 -2.89,-2.404 -6.872,-3.014 -10.349,-1.584 -4.027,1.592 -7.233,5.518 -7.797,9.551 -0.46,3.295 0.794,6.266 3.532,8.363 0.907,0.694 2.203,0.522 2.896,-0.382 z" />
      <path
         style="fill:#f4aec5"
         id="path3865_4_"
         inkscape:connector-curvature="0"
         d="m 113.135,80.209 c -4.999,-2.766 -10.427,-2.121 -13.507,1.602 -0.733,0.873 -0.619,2.176 0.255,2.908 0.874,0.734 2.176,0.619 2.909,-0.254 0.006,-0.008 0.012,-0.016 0.018,-0.021 2.05,-2.479 5.658,-2.098 8.326,-0.621 2.986,1.65 5.458,4.951 4.25,8.604 -0.368,1.08 0.209,2.254 1.288,2.621 1.079,0.369 2.253,-0.207 2.621,-1.287 0.004,-0.012 0.008,-0.025 0.012,-0.037 1.951,-5.899 -1.694,-11.038 -6.172,-13.515 z" />
      <path
         style="fill:#ffffff;stroke:#ffffff;stroke-miterlimit:10"
         inkscape:connector-curvature="0"
         stroke-miterlimit="10"
         d="m 151.282,43.974 c -3.176,0 -5.75,2.574 -5.75,5.75 0,3.176 2.574,5.75 5.75,5.75 3.176,0 5.75,-2.574 5.75,-5.75 0,-3.176 -2.574,-5.75 -5.75,-5.75 z m 0,8.5 c -1.519,0 -2.75,-1.231 -2.75,-2.75 0,-1.519 1.231,-2.75 2.75,-2.75 1.519,0 2.75,1.231 2.75,2.75 0,1.519 -1.232,2.75 -2.75,2.75 z"
         id="path8" />
      <path
         style="fill:#ffffff;stroke:#ffffff;stroke-miterlimit:10"
         inkscape:connector-curvature="0"
         stroke-miterlimit="10"
         d="m 134.294,38.895 c -3.176,0 -5.75,2.574 -5.75,5.75 0,3.176 2.574,5.75 5.75,5.75 3.176,0 5.75,-2.574 5.75,-5.75 0,-3.176 -2.574,-5.75 -5.75,-5.75 z m 0,8.5 c -1.519,0 -2.75,-1.232 -2.75,-2.75 0,-1.52 1.231,-2.75 2.75,-2.75 1.519,0 2.75,1.23 2.75,2.75 0,1.518 -1.231,2.75 -2.75,2.75 z"
         id="path10" />
      <path
         style="fill:#ffffff;stroke:#ffffff;stroke-miterlimit:10"
         inkscape:connector-curvature="0"
         stroke-miterlimit="10"
         d="m 149.282,81.659 c -3.176,0 -5.75,2.574 -5.75,5.75 0,3.176 2.574,5.75 5.75,5.75 3.176,0 5.75,-2.574 5.75,-5.75 0,-3.176 -2.574,-5.75 -5.75,-5.75 z m 0,8.5 c -1.519,0 -2.75,-1.23 -2.75,-2.75 0,-1.518 1.231,-2.75 2.75,-2.75 1.519,0 2.75,1.232 2.75,2.75 0,1.519 -1.232,2.75 -2.75,2.75 z"
         id="path12" />
      <path
         style="fill:#ffffff;stroke:#ffffff;stroke-miterlimit:10"
         inkscape:connector-curvature="0"
         stroke-miterlimit="10"
         d="m 157.046,60.38 c -3.176,0 -5.75,2.575 -5.75,5.751 0,3.176 2.574,5.75 5.75,5.75 3.176,0 5.75,-2.574 5.75,-5.75 0,-3.176 -2.574,-5.751 -5.75,-5.751 z m 0,8.501 c -1.519,0 -2.75,-1.232 -2.75,-2.75 0,-1.52 1.231,-2.75 2.75,-2.75 1.519,0 2.75,1.23 2.75,2.75 0,1.518 -1.231,2.75 -2.75,2.75 z"
         id="path14" />
      <path
         style="fill:#ffffff;stroke:#ffffff;stroke-miterlimit:10"
         inkscape:connector-curvature="0"
         stroke-miterlimit="10"
         d="m 133.319,88.41 c -3.176,0 -5.75,2.574 -5.75,5.75 0,3.176 2.574,5.75 5.75,5.75 3.176,0 5.75,-2.574 5.75,-5.75 0,-3.176 -2.574,-5.75 -5.75,-5.75 z m 0,8.5 c -1.519,0 -2.75,-1.232 -2.75,-2.75 0,-1.518 1.231,-2.75 2.75,-2.75 1.519,0 2.75,1.232 2.75,2.75 0,1.518 -1.232,2.75 -2.75,2.75 z"
         id="path16" />
      <polyline
         style="fill:none;stroke:#ffffff;stroke-width:4;stroke-linecap:round;stroke-linejoin:round;stroke-miterlimit:10"
         stroke-miterlimit="10"
         points="   132.319,30.622 142.282,30.622 151.49,39.172 151.49,45.722  "
         id="polyline18" />
      <polyline
         style="fill:none;stroke:#ffffff;stroke-width:4;stroke-linecap:round;stroke-linejoin:round;stroke-miterlimit:10"
         stroke-miterlimit="10"
         points="   134.319,49.724 134.319,60.28 140.069,66.131 152.296,66.131  "
         id="polyline20" />
      <polyline
         style="fill:none;stroke:#ffffff;stroke-width:4;stroke-linecap:round;stroke-linejoin:round;stroke-miterlimit:10"
         stroke-miterlimit="10"
         points="   118.503,74.504 146.037,74.504 150.07,78.239 150.07,82.157  "
         id="polyline22" />
    </g>
    <text
       y="61.761391"
       x="62.767204"
       style="font-size:14.16372776px;font-family:NexaBold;fill:#f4aec5;stroke-width:0.26458332"
       font-size="53.5322"
       id="text26">COGNAI</text>
  </g>
</svg>
